<?xml version="1.0" standalone="no"?>
<!DOCTYPE svg PUBLIC "-//W3C//DTD SVG 20010904//EN"
 "http://www.w3.org/TR/2001/REC-SVG-20010904/DTD/svg10.dtd">
<svg version="1.0" xmlns="http://www.w3.org/2000/svg"
 width="80pt" height="60pt" viewBox="0 0 800.000000 600.000000"
 preserveAspectRatio="xMidYMid meet">
<metadata>
Created by potrace 1.16, written by Peter Selinger 2001-2019
</metadata>
<g transform="translate(0,600) scale(0.100000,-0.1)"
fill="#000000" stroke="none">
<path d="M5648 4353 c13 -5 17 -23 5 -23 -7 0 -67 -56 -95 -90 -33 -38 -43
-75 -40 -143 1 -38 7 -77 12 -86 8 -13 10 -14 11 -1 4 46 18 82 29 75 5 -3 10
5 12 17 2 13 8 22 13 21 6 -1 15 8 22 20 7 12 12 19 13 15 0 -4 14 7 31 25 17
17 38 31 46 29 8 -2 12 1 9 6 -3 5 2 16 11 23 12 10 14 10 9 2 -4 -7 -3 -13 2
-13 6 0 12 7 16 15 3 8 17 20 31 27 14 6 25 14 25 17 0 12 -91 61 -113 60 -12
0 -31 1 -42 4 -11 2 -14 2 -7 0z"/>
<path d="M2176 4050 c3 -52 7 -106 9 -120 2 -14 7 -47 10 -75 9 -80 54 -322
81 -430 173 -697 501 -1207 971 -1508 79 -51 272 -147 295 -147 8 0 18 -4 23
-9 9 -8 51 -22 180 -61 180 -55 507 -86 725 -69 335 25 610 127 875 324 69 51
218 192 278 263 49 58 153 205 182 257 15 28 40 73 56 100 15 28 44 90 64 139
83 201 117 344 105 441 -4 33 -5 65 -4 70 2 6 -19 36 -46 68 -28 32 -48 63
-45 68 3 4 -1 22 -10 39 -8 16 -13 30 -10 30 3 0 -4 18 -15 40 -11 22 -23 40
-25 40 -3 0 4 -18 15 -40 11 -22 18 -40 15 -40 -3 0 2 -14 10 -31 9 -17 14
-33 12 -36 -3 -2 -25 6 -49 20 -92 51 -195 54 -303 9 -47 -19 -154 -86 -209
-131 -22 -17 -41 -30 -43 -27 -2 2 -5 16 -7 32 -12 91 -62 204 -118 265 -72
79 -192 118 -321 104 -40 -4 -82 -8 -94 -9 -12 0 -19 -3 -17 -5 2 -2 -4 -10
-15 -17 -23 -16 -69 -109 -77 -155 -3 -19 -10 -43 -14 -54 -5 -11 -19 -49 -30
-85 -54 -169 -146 -325 -256 -435 -217 -217 -500 -286 -865 -211 -525 109
-930 466 -1186 1046 -46 105 -74 183 -132 370 l-21 65 6 -95z m2727 -697 c-77
-77 -114 -138 -138 -233 -102 -404 -324 -676 -625 -765 -153 -46 -323 -49
-515 -10 -132 26 -170 37 -285 83 -227 91 -441 252 -614 462 -97 119 -97 121
4 19 219 -221 432 -347 720 -423 395 -105 726 -29 958 218 129 139 198 275
283 566 13 41 29 85 37 97 16 26 108 51 190 52 l54 1 -69 -67z"/>
</g>
</svg>
